<svg xmlns="http://www.w3.org/2000/svg" viewBox="0 0 64 64" role="img" aria-label="One Support Disability">
  <rect width="64" height="64" rx="14" fill="#143852"/>
  <circle cx="20" cy="26" r="6.5" fill="#02a1df"/>
  <circle cx="44" cy="26" r="6.5" fill="#58b929"/>
  <circle cx="32" cy="21" r="7" fill="#fdf9f5"/>
  <path d="M14 50c0-8 4-13 10-13 3 0 5 1.4 6.5 3.4l1.5 2 1.5-2C35 38.4 37 37 40 37c6 0 10 5 10 13z" fill="#fdf9f5"/>
  <path d="M14 50c0-8 4-13 10-13 3 0 5 1.4 6.5 3.4L32 42z" fill="#02a1df"/>
  <path d="M50 50c0-8-4-13-10-13-3 0-5 1.4-6.5 3.4L32 42z" fill="#58b929"/>
</svg>
